<svg width="16" height="16" viewBox="0 0 16 16" fill="none" xmlns="http://www.w3.org/2000/svg">
<path d="M11.5 6C11.5 6.39782 11.342 6.77936 11.0607 7.06066C10.7794 7.34196 10.3978 7.5 10 7.5C9.60218 7.5 9.22064 7.34196 8.93934 7.06066C8.65804 6.77936 8.5 6.39782 8.5 6C8.5 5.60218 8.65804 5.22064 8.93934 4.93934C9.22064 4.65804 9.60218 4.5 10 4.5C10.3978 4.5 10.7794 4.65804 11.0607 4.93934C11.342 5.22064 11.5 5.60218 11.5 6Z" stroke="#EED49F" stroke-linecap="round" stroke-linejoin="round"/>
<path d="M7.5 13.5L11 10C11.5 9.5 12.5 9.5 13 10L14.5 11.5" stroke="#A6DA95" stroke-linecap="round" stroke-linejoin="round"/>
<path d="M1.5 9.5L3.5 7.5C4 7 5 7 5.5 7.5L9.5 11.5" stroke="#A6DA95" stroke-linecap="round" stroke-linejoin="round"/>
<path d="M3 2.5H13C13.83 2.5 14.5 3.17 14.5 4V12C14.5 12.83 13.83 13.5 13 13.5H3C2.60218 13.5 2.22064 13.342 1.93934 13.0607C1.65804 12.7794 1.5 12.3978 1.5 12V4C1.5 3.17 2.17 2.5 3 2.5Z" stroke="#7DC4E4" stroke-linecap="round" stroke-linejoin="round"/>
</svg>
