<svg width="150" height="150" viewBox="0 0 150 150" fill="none" xmlns="http://www.w3.org/2000/svg">
<path d="M75 96.875C79.8325 96.875 83.75 92.9575 83.75 88.125C83.75 83.2925 79.8325 79.375 75 79.375C70.1675 79.375 66.25 83.2925 66.25 88.125C66.25 92.9575 70.1675 96.875 75 96.875Z" fill="#0099FF"/>
<path d="M109.024 85.8456C106.321 78.9589 101.656 73.0168 95.6084 68.7558C89.5603 64.4949 82.3948 62.1024 75 61.875C67.6052 62.1024 60.4397 64.4949 54.3916 68.7558C48.3436 73.0168 43.6788 78.9589 40.9756 85.8456L40 88.125L40.9756 90.4087C43.6795 97.2947 48.3445 103.236 54.3926 107.496C60.4406 111.756 67.6057 114.148 75 114.375C82.3943 114.148 89.5594 111.756 95.6074 107.496C101.655 103.236 106.32 97.2947 109.024 90.4087L110 88.125L109.024 85.8456ZM75 105.625C71.5388 105.625 68.1554 104.599 65.2775 102.676C62.3997 100.753 60.1566 98.0197 58.8321 94.822C57.5076 91.6243 57.161 88.1056 57.8363 84.7109C58.5115 81.3163 60.1782 78.1981 62.6256 75.7506C65.073 73.3032 68.1913 71.6365 71.5859 70.9613C74.9806 70.286 78.4993 70.6326 81.697 71.9571C84.8947 73.2816 87.6278 75.5247 89.5507 78.4025C91.4736 81.2804 92.5 84.6638 92.5 88.125C92.4942 92.7645 90.6486 97.2123 87.368 100.493C84.0873 103.774 79.6395 105.619 75 105.625Z" fill="#0099FF"/>
<path d="M123.125 18.125H26.875C24.5544 18.125 22.3288 19.0469 20.6878 20.6878C19.0469 22.3288 18.125 24.5544 18.125 26.875V123.125C18.125 125.446 19.0469 127.671 20.6878 129.312C22.3288 130.953 24.5544 131.875 26.875 131.875H123.125C125.446 131.875 127.671 130.953 129.312 129.312C130.953 127.671 131.875 125.446 131.875 123.125V26.875C131.875 24.5544 130.953 22.3288 129.312 20.6878C127.671 19.0469 125.446 18.125 123.125 18.125ZM26.875 26.875H123.125V44.375H26.875V26.875ZM26.875 123.125V53.125H123.125V123.125H26.875Z" fill="#0099FF"/>
</svg>
