<svg width="24" height="24" viewBox="0 0 24 24" fill="none" xmlns="http://www.w3.org/2000/svg">
<path d="M2 2V2.66374L8.78294 10.2945L9.18143 9.60445L2.42185 2H2ZM5.26492 2L9.33845 9.33244L9.77933 8.56874L6.13004 2H5.26492ZM9.09492 2C9.27668 2.79908 9.73651 4.82151 10.2865 7.2658C10.3099 7.37008 10.3316 7.46777 10.355 7.5716L10.9128 6.6055C10.5669 5.06999 10.2195 3.53482 9.87059 2H9.09492ZM11.6218 2V5.37744L12 4.72248L12.3275 5.28971L12.3782 5.37744V2H11.6218ZM14.1336 2L13.1038 6.63433L13.6632 7.60315L14.9084 2H14.1336ZM17.87 2L14.2207 8.56874L14.6616 9.33244L18.7351 2H17.87H17.87ZM21.5781 2L14.8186 9.60445L15.217 10.2945L22 2.66374V2H21.5781ZM2 5.37185V6.31723L8.33571 11.0691L8.71668 10.4094L2 5.37185ZM22 5.37185L15.2834 10.4094L15.6642 11.069L22 6.31723V5.37185ZM12 6.23517L8.86319 11.6683C9.71601 11.2858 10.8066 11.0653 12 11.0653C13.1934 11.0653 14.284 11.2858 15.1368 11.6683L12 6.23517ZM2 9.19063V9.99845L7.71639 12.1421L8.09966 11.478L2 9.19063ZM22 9.19063L15.9003 11.478L16.2837 12.1421L22 9.99849V9.19067V9.19063ZM2 11.7134V12.4756L7.15189 13.1196L7.56239 12.4087L2 11.7134ZM22 11.7134L16.4377 12.4087L16.8481 13.1196L22 12.4756V11.7134ZM12 11.8217C11.3808 11.8217 10.887 12.3154 10.887 12.9346C10.887 13.2933 11.0529 13.6096 11.3126 13.8126C11.2745 13.6958 11.2549 13.5739 11.2545 13.4511C11.2545 13.1381 11.3788 12.8379 11.6001 12.6165C11.8215 12.3952 12.1217 12.2708 12.4347 12.2708C12.6253 12.2712 12.813 12.3176 12.9818 12.4063C12.795 12.0569 12.4274 11.8217 12 11.8217ZM10.3958 11.9787C9.86403 12.0866 9.39034 12.2445 9.0058 12.4368C8.26504 12.8072 7.90454 13.267 7.90454 13.6803C7.90454 14.0935 8.26504 14.5532 9.0058 14.9236C9.74656 15.294 10.8158 15.5389 12 15.5389C13.1842 15.5389 14.2534 15.294 14.9942 14.9236C15.735 14.5532 16.0955 14.0936 16.0955 13.6803C16.0955 13.2669 15.735 12.8071 14.9942 12.4368C14.6096 12.2445 14.136 12.0866 13.6042 11.9787C13.7778 12.2673 13.8695 12.5978 13.8693 12.9346C13.8693 13.9626 13.0279 14.804 12 14.804C10.9721 14.804 10.1307 13.9626 10.1307 12.9346C10.1307 12.5859 10.2277 12.2589 10.3958 11.9787ZM6.87198 13.6045L2 14.2134V14.9756L6.39773 14.426L6.87198 13.6045ZM17.128 13.6045L17.6023 14.426L22 14.9756V14.2134L17.128 13.6045ZM7.30626 14.365L4.9066 18.5213H19.0933L16.6937 14.365C16.4516 14.8724 15.951 15.2908 15.3324 15.6002C14.454 16.0393 13.2864 16.2951 12 16.2951C10.7135 16.2951 9.54597 16.0393 8.66761 15.6002C8.04891 15.2908 7.54828 14.8724 7.30626 14.3649V14.365ZM18.0558 15.2116L18.6511 16.2426L22 17.4984V16.6906L18.0559 15.2116L18.0558 15.2116ZM5.94408 15.2117L2 16.6906V17.4984L5.34887 16.2426L5.94408 15.2116V15.2117ZM4.61445 17.5145L2 19.1486V20.0405L3.80882 18.91L4.6145 17.5146L4.61445 17.5145ZM19.3855 17.5145L20.1911 18.9099L22 20.0405V19.1487L19.3855 17.5146L19.3855 17.5145ZM4.64513 19.2776L2 21.592V22H2.68227L5.79361 19.2775H4.64521L4.64513 19.2776ZM6.41647 19.2776L4.0829 22H5.07912L7.41261 19.2775H6.41651L6.41647 19.2776ZM8.17412 19.2776L6.61849 22H7.48958L9.04529 19.2775H8.17416L8.17412 19.2776ZM9.97042 19.2776C9.60634 20.4944 9.31244 21.4576 9.14647 22H9.93723C10.2142 21.0934 10.4884 20.1859 10.7596 19.2775H9.97042V19.2776ZM11.6218 19.2776V22H12.3781V19.2775H11.6218V19.2776ZM13.3018 19.2776L14.0797 22H14.8663L14.0884 19.2775H13.3018L13.3018 19.2776ZM14.9547 19.2776L16.5104 22H17.3815L15.8258 19.2775H14.9547L14.9547 19.2776ZM16.5873 19.2776L18.9209 22H19.9171L17.5834 19.2775H16.5874L16.5873 19.2776ZM18.2063 19.2776L21.3178 22H22V21.592L19.3548 19.2775L18.2063 19.2776Z" fill="#29CC6A"/>
</svg>
