<svg width="80" height="80" viewBox="0 0 80 80" fill="none" xmlns="http://www.w3.org/2000/svg">
<path d="M12.7992 40.0002C12.7992 55.0402 24.9592 67.2002 39.9992 67.2002C55.0392 67.2002 67.1992 55.0402 67.1992 40.0002C67.1992 24.9602 55.0392 12.8002 39.9992 12.8002C24.9592 12.8002 12.7992 24.9602 12.7992 40.0002ZM63.9992 40.0002C63.9992 53.2802 53.2792 64.0002 39.9992 64.0002C26.7192 64.0002 15.9992 53.2802 15.9992 40.0002C15.9992 26.7202 26.7192 16.0002 39.9992 16.0002C53.2792 16.0002 63.9992 26.7202 63.9992 40.0002Z" fill="white" stroke="white" stroke-width="4"/>
<path d="M37.2791 26.72L50.5591 40L37.2791 53.28L39.5191 55.52L55.0391 40L39.5191 24.48L37.2791 26.72Z" fill="white" stroke="white" stroke-width="4"/>
<path d="M52.8008 41.6001L52.8008 38.4001L25.6008 38.4001L25.6008 41.6001L52.8008 41.6001Z" fill="white" stroke="white" stroke-width="4"/>
</svg>
