<svg width="80" height="80" viewBox="0 0 80 80" fill="none" xmlns="http://www.w3.org/2000/svg">
<path d="M67.2008 40.0002C67.2008 55.0402 55.0408 67.2002 40.0008 67.2002C24.9608 67.2002 12.8008 55.0402 12.8008 40.0002C12.8008 24.9602 24.9608 12.8002 40.0008 12.8002C55.0408 12.8002 67.2008 24.9602 67.2008 40.0002ZM16.0008 40.0002C16.0008 53.2802 26.7208 64.0002 40.0008 64.0002C53.2808 64.0002 64.0008 53.2802 64.0008 40.0002C64.0008 26.7202 53.2808 16.0002 40.0008 16.0002C26.7208 16.0002 16.0008 26.7202 16.0008 40.0002Z" fill="white" stroke="white" stroke-width="4"/>
<path d="M42.7209 26.72L29.4409 40L42.7209 53.28L40.4809 55.52L24.9609 40L40.4809 24.48L42.7209 26.72Z" fill="white" stroke="white" stroke-width="4"/>
<path d="M27.1992 41.6001L27.1992 38.4001L54.3992 38.4001L54.3992 41.6001L27.1992 41.6001Z" fill="white" stroke="white" stroke-width="4"/>
</svg>
