<svg width="200" height="200" viewBox="0 0 200 200" fill="none" xmlns="http://www.w3.org/2000/svg">
<rect width="200" height="200" fill="#E7E7E7"/>
<path d="M81 66H137.25C140.234 66 143.095 67.1853 145.205 69.295C147.315 71.4048 148.5 74.2663 148.5 77.25V81M92.25 133.5H62.25C59.2663 133.5 56.4048 132.315 54.295 130.205C52.1853 128.095 51 125.234 51 122.25V58.5C51 56.5109 51.7902 54.6032 53.1967 53.1967C54.6032 51.7902 56.5109 51 58.5 51H96C97.9891 51 99.8968 51.7902 101.303 53.1967C102.71 54.6032 103.5 56.5109 103.5 58.5V66" stroke="#CAD3F5" stroke-width="10" stroke-linecap="round" stroke-linejoin="round"/>
<path d="M117.833 133.17H132.803M125.318 88.5C112.703 88.5 102.818 97.9425 102.818 109.545C102.818 118.282 107.491 122.445 111.181 125.49C113.551 127.448 117.833 128.625 117.833 130.08V133.26C117.788 135.12 117.803 137.047 117.803 138.93C117.803 144.652 120.293 148.5 125.393 148.5C130.493 148.5 132.833 144.652 132.833 138.93C132.833 137.055 132.841 135.053 132.803 133.26V130.08C132.803 127.867 137.273 126.533 139.981 124.358C143.641 121.41 147.818 117.757 147.818 109.545C147.818 97.9425 137.933 88.5 125.318 88.5Z" stroke="#EED49F" stroke-width="5" stroke-linecap="round" stroke-linejoin="round"/>
</svg>
