<svg width="24" height="24" viewBox="0 0 24 24" fill="none" xmlns="http://www.w3.org/2000/svg">
<path d="M11.906 2.00046C11.0815 2.00839 10.2449 2.11928 9.41231 2.34244C8.87311 2.48694 8.34689 2.67615 7.83913 2.90811C7.23673 2.37541 6.4462 2.05088 5.58171 2.05088C3.70115 2.05088 2.16824 3.58379 2.16824 5.46435C2.16824 6.30797 2.47733 7.08098 2.98724 7.6777C1.9887 9.75649 1.69935 12.1882 2.34236 14.5878C3.77035 19.9171 9.2584 23.0855 14.5877 21.6575C19.917 20.2295 23.0855 14.7416 21.6575 9.41227C20.4528 4.9157 16.3575 1.95739 11.906 2.00046ZM12.0978 2.77894C13.9756 2.79697 15.7748 3.39244 17.2728 4.4358L8.90357 4.67865C8.80456 4.26316 8.62827 3.87 8.38389 3.51968C8.78358 3.34988 9.19463 3.20819 9.61406 3.09566C10.3832 2.88962 11.1553 2.78683 11.9159 2.77902C11.9766 2.77838 12.0372 2.77835 12.0978 2.77894H12.0978ZM5.58171 2.83048C7.04096 2.83048 8.21566 4.00514 8.21566 5.46435C8.21566 6.92368 7.04096 8.09821 5.58171 8.09821C4.12246 8.09821 2.94784 6.92368 2.94784 5.46435C2.94784 4.00514 4.12246 2.83048 5.58171 2.83048ZM18.3253 5.29006C18.7321 5.67314 19.1032 6.09256 19.4338 6.5431L13.6435 5.39373L18.3253 5.29006ZM8.99426 5.41276L19.9564 7.33931C20.2308 7.809 20.463 8.30211 20.6503 8.81283L15.2877 8.04233L21.1417 10.8062C21.2108 11.3273 21.2349 11.8533 21.2139 12.3785L8.82594 6.52315C8.93813 6.18142 8.99527 5.82402 8.99522 5.46435C8.99522 5.44707 8.99451 5.43 8.99426 5.41276ZM8.45805 7.29758L20.1296 16.35C19.8234 16.9223 19.4578 17.4607 19.0388 17.9564L12.4333 12.3795L17.8225 19.1514C17.2924 19.5831 16.7156 19.954 16.1029 20.2572L7.59828 8.21532C7.9388 7.96479 8.23022 7.65368 8.45805 7.29758ZM3.58546 8.22976C3.87513 8.43968 4.19599 8.60276 4.5363 8.71305L3.31198 15.0828C3.23083 14.8534 3.15867 14.6209 3.09567 14.3859C2.52415 12.253 2.74814 10.0965 3.58546 8.22976ZM6.76154 8.66714L11.6914 21.216C10.9047 21.1903 10.1246 21.0633 9.37029 20.8383L7.22805 14.3711L7.33122 19.9509C6.64169 19.5463 6.00759 19.0538 5.44482 18.4859L5.30939 8.86696C5.39925 8.87406 5.48998 8.87781 5.58163 8.87781C5.99605 8.87781 6.39349 8.80328 6.76146 8.66706L6.76154 8.66714ZM13.9391 10.1199L21.0535 13.7537C20.9629 14.2199 20.8363 14.6784 20.675 15.1252L13.9391 10.1199ZM4.6666 11.944L4.83395 17.8042C4.45414 17.3354 4.12162 16.8301 3.84125 16.2958L4.6666 11.944ZM9.97565 13.6092L14.8069 20.7806C14.6676 20.8252 14.5272 20.8664 14.3859 20.9044C13.9991 21.0081 13.606 21.0867 13.2091 21.1398L9.97573 13.6093L9.97565 13.6092Z" fill="#85B6FF"/>
</svg>
