<svg width="80" height="80" viewBox="0 0 80 80" fill="none" xmlns="http://www.w3.org/2000/svg">
<path fill-rule="evenodd" clip-rule="evenodd" d="M66.6673 13.3332H13.334C12.4499 13.3332 11.6021 13.6844 10.977 14.3095C10.3518 14.9346 10.0007 15.7824 10.0007 16.6665V63.3332C10.0007 64.2172 10.3518 65.0651 10.977 65.6902C11.6021 66.3153 12.4499 66.6665 13.334 66.6665H66.6673C67.5514 66.6665 68.3992 66.3153 69.0243 65.6902C69.6495 65.0651 70.0007 64.2172 70.0007 63.3332V16.6665C70.0007 15.7824 69.6495 14.9346 69.0243 14.3095C68.3992 13.6844 67.5514 13.3332 66.6673 13.3332ZM13.334 6.6665C10.6818 6.6665 8.13828 7.72007 6.26292 9.59544C4.38755 11.4708 3.33398 14.0143 3.33398 16.6665V63.3332C3.33398 65.9853 4.38755 68.5289 6.26292 70.4042C8.13828 72.2796 10.6818 73.3332 13.334 73.3332H66.6673C69.3195 73.3332 71.863 72.2796 73.7384 70.4042C75.6138 68.5289 76.6673 65.9853 76.6673 63.3332V16.6665C76.6673 14.0143 75.6138 11.4708 73.7384 9.59544C71.863 7.72007 69.3195 6.6665 66.6673 6.6665H13.334ZM20.0007 23.3332H26.6673V29.9998H20.0007V23.3332ZM36.6673 23.3332C35.7833 23.3332 34.9354 23.6844 34.3103 24.3095C33.6852 24.9346 33.334 25.7824 33.334 26.6665C33.334 27.5506 33.6852 28.3984 34.3103 29.0235C34.9354 29.6486 35.7833 29.9998 36.6673 29.9998H56.6673C57.5514 29.9998 58.3992 29.6486 59.0243 29.0235C59.6495 28.3984 60.0007 27.5506 60.0007 26.6665C60.0007 25.7824 59.6495 24.9346 59.0243 24.3095C58.3992 23.6844 57.5514 23.3332 56.6673 23.3332H36.6673ZM26.6673 36.6665H20.0007V43.3332H26.6673V36.6665ZM33.334 39.9998C33.334 39.1158 33.6852 38.2679 34.3103 37.6428C34.9354 37.0177 35.7833 36.6665 36.6673 36.6665H56.6673C57.5514 36.6665 58.3992 37.0177 59.0243 37.6428C59.6495 38.2679 60.0007 39.1158 60.0007 39.9998C60.0007 40.8839 59.6495 41.7317 59.0243 42.3569C58.3992 42.982 57.5514 43.3332 56.6673 43.3332H36.6673C35.7833 43.3332 34.9354 42.982 34.3103 42.3569C33.6852 41.7317 33.334 40.8839 33.334 39.9998ZM26.6673 49.9998H20.0007V56.6665H26.6673V49.9998ZM33.334 53.3332C33.334 52.4491 33.6852 51.6013 34.3103 50.9761C34.9354 50.351 35.7833 49.9998 36.6673 49.9998H56.6673C57.5514 49.9998 58.3992 50.351 59.0243 50.9761C59.6495 51.6013 60.0007 52.4491 60.0007 53.3332C60.0007 54.2172 59.6495 55.0651 59.0243 55.6902C58.3992 56.3153 57.5514 56.6665 56.6673 56.6665H36.6673C35.7833 56.6665 34.9354 56.3153 34.3103 55.6902C33.6852 55.0651 33.334 54.2172 33.334 53.3332Z" fill="#85B6FF"/>
</svg>
