<svg width="40" height="40" viewBox="0 0 40 40" fill="none" xmlns="http://www.w3.org/2000/svg">
<path fill-rule="evenodd" clip-rule="evenodd" d="M28.2713 29.9947C25.6302 32.2431 22.2069 33.6 18.4666 33.6C10.1087 33.6 3.33331 26.8246 3.33331 18.4666C3.33331 10.1087 10.1087 3.33331 18.4666 3.33331C26.8246 3.33331 33.6 10.1087 33.6 18.4666C33.6 22.1843 32.2594 25.5889 30.0354 28.2233L37.2994 35.4873L35.5316 37.2551L28.2713 29.9947ZM31.1 18.4666C31.1 25.4438 25.4438 31.1 18.4666 31.1C11.4894 31.1 5.83331 25.4438 5.83331 18.4666C5.83331 11.4894 11.4894 5.83331 18.4666 5.83331C25.4438 5.83331 31.1 11.4894 31.1 18.4666Z" fill="#78B3E8" stroke="#3C92DC"/>
</svg>
