<svg width="38" height="38" viewBox="0 0 38 38" fill="none" xmlns="http://www.w3.org/2000/svg">
<rect width="38" height="38" rx="4" fill="#3C92DC"/>
<path d="M24.5417 22.1667H23.2908L22.8475 21.7392C24.4529 19.8773 25.3352 17.5001 25.3333 15.0417C25.3333 13.0062 24.7297 11.0164 23.5989 9.32393C22.468 7.63147 20.8607 6.31236 18.9801 5.53341C17.0996 4.75446 15.0303 4.55065 13.0339 4.94776C11.0375 5.34486 9.20368 6.32505 7.76436 7.76436C6.32505 9.20368 5.34486 11.0375 4.94776 13.0339C4.55065 15.0303 4.75446 17.0996 5.53341 18.9801C6.31236 20.8607 7.63147 22.468 9.32393 23.5989C11.0164 24.7297 13.0062 25.3333 15.0417 25.3333C17.5908 25.3333 19.9342 24.3992 21.7392 22.8475L22.1667 23.2908V24.5417L30.0833 32.4425L32.4425 30.0833L24.5417 22.1667ZM15.0417 22.1667C11.0992 22.1667 7.91667 18.9842 7.91667 15.0417C7.91667 11.0992 11.0992 7.91667 15.0417 7.91667C18.9842 7.91667 22.1667 11.0992 22.1667 15.0417C22.1667 18.9842 18.9842 22.1667 15.0417 22.1667Z" fill="white"/>
</svg>
