<svg width="24" height="24" viewBox="0 0 24 24" fill="none" xmlns="http://www.w3.org/2000/svg">
<path d="M15.4995 14H14.7095L14.4295 13.73C15.0544 13.0039 15.5112 12.1487 15.767 11.2256C16.0229 10.3024 16.0715 9.33413 15.9095 8.38998C15.4395 5.60998 13.1195 3.38997 10.3195 3.04997C9.3351 2.92544 8.33527 3.02775 7.39651 3.34906C6.45775 3.67038 5.60493 4.20219 4.90332 4.90381C4.20171 5.60542 3.66989 6.45824 3.34858 7.397C3.02726 8.33576 2.92495 9.33559 3.04949 10.32C3.38949 13.12 5.60949 15.44 8.38949 15.91C9.33364 16.072 10.3019 16.0234 11.2251 15.7675C12.1483 15.5117 13.0035 15.0549 13.7295 14.43L13.9995 14.71V15.5L18.2495 19.75C18.6595 20.16 19.3295 20.16 19.7395 19.75C20.1495 19.34 20.1495 18.67 19.7395 18.26L15.4995 14ZM9.49949 14C7.00949 14 4.99949 11.99 4.99949 9.49997C4.99949 7.00997 7.00949 4.99997 9.49949 4.99997C11.9895 4.99997 13.9995 7.00997 13.9995 9.49997C13.9995 11.99 11.9895 14 9.49949 14Z" fill="#545454"/>
</svg>
