<svg width="32" height="32" viewBox="0 0 32 32" fill="none" xmlns="http://www.w3.org/2000/svg">
<path fill-rule="evenodd" clip-rule="evenodd" d="M7.99935 11.3332C7.99935 9.49222 9.49173 7.99984 11.3327 7.99984C13.1736 7.99984 14.666 9.49222 14.666 11.3332C14.666 13.1741 13.1736 14.6665 11.3327 14.6665C9.49173 14.6665 7.99935 13.1741 7.99935 11.3332ZM11.3327 10.6665C10.9645 10.6665 10.666 10.965 10.666 11.3332C10.666 11.7014 10.9645 11.9998 11.3327 11.9998C11.7009 11.9998 11.9993 11.7014 11.9993 11.3332C11.9993 10.965 11.7009 10.6665 11.3327 10.6665Z" fill="#2D3648"/>
<path fill-rule="evenodd" clip-rule="evenodd" d="M2.66602 6.6665C2.66602 4.45736 4.45688 2.6665 6.66602 2.6665H25.3327C27.5418 2.6665 29.3327 4.45736 29.3327 6.6665V25.3332C29.3327 27.5423 27.5418 29.3332 25.3327 29.3332H6.66602C4.45688 29.3332 2.66602 27.5423 2.66602 25.3332V6.6665ZM6.66602 5.33317C5.92964 5.33317 5.33268 5.93012 5.33268 6.6665V25.3332C5.33268 25.9049 5.69258 26.3927 6.19821 26.5821L20.39 12.3904C20.9107 11.8697 21.7549 11.8697 22.2756 12.3904L26.666 16.7808V6.6665C26.666 5.93012 26.0691 5.33317 25.3327 5.33317H6.66602ZM26.666 20.552L21.3328 15.2188L9.88507 26.6665H25.3327C26.0691 26.6665 26.666 26.0696 26.666 25.3332V20.552Z" fill="#2D3648"/>
</svg>
