<svg width="48" height="48" viewBox="0 0 48 48" fill="none" xmlns="http://www.w3.org/2000/svg">
<path d="M4.18914 22.173C4.16516 21.8968 4.19885 21.6187 4.28806 21.3563C4.37727 21.0939 4.52006 20.8528 4.70736 20.6485C4.89466 20.4442 5.1224 20.281 5.3761 20.1694C5.62981 20.0578 5.90395 20.0001 6.18114 20H10.0001C10.5306 20 11.0393 20.2107 11.4144 20.5858C11.7894 20.9609 12.0001 21.4696 12.0001 22V41C12.0001 41.5304 11.7894 42.0391 11.4144 42.4142C11.0393 42.7893 10.5306 43 10.0001 43H7.83414C7.33357 43.0001 6.85115 42.8125 6.48216 42.4743C6.11317 42.136 5.88444 41.6717 5.84114 41.173L4.18914 22.173ZM18.0001 21.375C18.0001 20.539 18.5201 19.791 19.2751 19.435C20.9241 18.657 23.7331 17.094 25.0001 14.981C26.6331 12.257 26.9411 7.33599 26.9911 6.20899C26.9981 6.05099 26.9941 5.89299 27.0151 5.73699C27.2861 3.78399 31.0551 6.06499 32.5001 8.47699C33.2851 9.78499 33.3851 11.504 33.3031 12.847C33.2141 14.283 32.7931 15.67 32.3801 17.048L31.5001 19.985H42.3571C42.6661 19.985 42.971 20.0566 43.2476 20.1941C43.5243 20.3317 43.7654 20.5315 43.9519 20.7779C44.1384 21.0243 44.2653 21.3105 44.3226 21.6142C44.3799 21.9178 44.366 22.2306 44.2821 22.528L38.9121 41.544C38.7936 41.9634 38.5413 42.3326 38.1936 42.5954C37.846 42.8582 37.422 43.0003 36.9861 43H20.0001C19.4697 43 18.961 42.7893 18.5859 42.4142C18.2109 42.0391 18.0001 41.5304 18.0001 41V21.375Z" stroke="#85B6FF" stroke-width="4" stroke-linecap="round" stroke-linejoin="round"/>
</svg>
