<svg width="80" height="80" viewBox="0 0 80 80" fill="none" xmlns="http://www.w3.org/2000/svg">
<path fill-rule="evenodd" clip-rule="evenodd" d="M6.72935 24.9833C6.66602 27.4133 6.66602 30.1733 6.66602 33.3333V40H33.656C32.5195 39.4642 31.2997 39.1271 30.0493 39.0033L23.3327 38.3333C18.956 37.8967 16.766 37.6767 14.9893 36.9567C13.128 36.202 11.4613 35.0365 10.1135 33.5474C8.76576 32.0582 7.77185 30.2838 7.20602 28.3567C6.92935 27.41 6.79268 26.37 6.72935 24.9833ZM72.9127 19.25L71.666 56.6667C70.0813 56.6669 68.5121 56.355 67.0479 55.7487C65.5838 55.1425 64.2534 54.2538 63.1327 53.1333L59.3727 49.3733C58.1393 48.14 57.5227 47.5233 56.8993 47.13C55.8324 46.4544 54.5955 46.0957 53.3327 46.0957C52.0698 46.0957 50.8329 46.4544 49.766 47.13C49.1427 47.5233 48.526 48.14 47.2927 49.3733L44.7127 51.9533C44.3261 52.3384 43.8341 52.6004 43.2988 52.7062C42.7635 52.8121 42.2088 52.7571 41.7047 52.5482C41.2006 52.3393 40.7697 51.9858 40.4662 51.5323C40.1627 51.0788 40.0003 50.5457 39.9993 50V73.3333H46.666C59.236 73.3333 65.5227 73.3333 69.426 69.4267C73.3293 65.52 73.3327 59.2367 73.3327 46.6667V33.3333C73.3327 27.3567 73.3327 22.8 72.9127 19.25Z" fill="#85B6FF"/>
<path d="M67.07 12.9267C65.84 11.7 64.1133 10.8967 60.8533 10.46C57.4967 10.0067 53.0467 10 46.6667 10H33.3333C26.9533 10 22.5033 10.0067 19.1467 10.46C15.8867 10.8967 14.16 11.6967 12.9267 12.93C11.7 14.16 10.8967 15.8867 10.46 19.1467C10.0067 22.5033 10 26.9533 10 33.3333V36.6667H33.5167C34.9333 36.6667 36.3 36.6667 37.4333 36.82C38.7133 36.99 40.17 37.41 41.38 38.62C42.59 39.83 43.01 41.2867 43.18 42.5667C43.3333 43.6967 43.3333 45.07 43.3333 46.4867V70H46.6667C53.0467 70 57.4967 69.9933 60.8533 69.5433C64.1133 69.1033 65.84 68.3033 67.07 67.07C68.3 65.84 69.1033 64.1133 69.5433 60.8533C69.9933 57.4967 70 53.0467 70 46.6667V33.3333C70 26.9533 69.9933 22.5033 69.5433 19.1467C69.1033 15.8867 68.3033 14.16 67.07 12.9267ZM67.07 12.9267L69.37 10.6267" stroke="#85B6FF" stroke-width="10"/>
<path d="M53.3327 33.3333C57.0146 33.3333 59.9993 30.3486 59.9993 26.6667C59.9993 22.9848 57.0146 20 53.3327 20C49.6508 20 46.666 22.9848 46.666 26.6667C46.666 30.3486 49.6508 33.3333 53.3327 33.3333Z" fill="#85B6FF"/>
<path d="M26.6672 53.3333V50H30.0005V53.3333H26.6672ZM12.0838 69.2667C11.7443 69.5566 11.3499 69.7754 10.9242 69.91C10.4985 70.0446 10.0501 70.0923 9.60553 70.0503C9.16101 70.0083 8.72947 69.8774 8.33651 69.6654C7.94356 69.4533 7.5972 69.1645 7.318 68.8161C7.0388 68.4677 6.83245 68.0667 6.7112 67.637C6.58995 67.2072 6.55627 66.7575 6.61215 66.3145C6.66803 65.8716 6.81235 65.4443 7.03653 65.0582C7.2607 64.672 7.56017 64.3348 7.91716 64.0667L12.0838 69.2667ZM23.3338 70V53.3333H30.0005V70H23.3338ZM26.6672 56.6667H10.0005V50H26.6672V56.6667ZM28.7505 55.9333L12.0838 69.2667L7.91716 64.0667L24.5838 50.7333L28.7505 55.9333Z" fill="#85B6FF"/>
</svg>
