<svg width="150" height="150" viewBox="0 0 150 150" fill="none" xmlns="http://www.w3.org/2000/svg">
<path fill-rule="evenodd" clip-rule="evenodd" d="M22.5 34.1666C22.5 29.5253 24.3437 25.0741 27.6256 21.7923C30.9075 18.5104 35.3587 16.6666 40 16.6666H110C114.641 16.6666 119.092 18.5104 122.374 21.7923C125.656 25.0741 127.5 29.5253 127.5 34.1666V115.833C127.5 120.475 125.656 124.926 122.374 128.208C119.092 131.49 114.641 133.333 110 133.333H40C35.3587 133.333 30.9075 131.49 27.6256 128.208C24.3437 124.926 22.5 120.475 22.5 115.833V34.1666ZM51.6667 34.1666V75L65.0425 61.6241C66.1364 60.5305 67.6199 59.9162 69.1667 59.9162C70.7135 59.9162 72.1969 60.5305 73.2908 61.6241L86.6667 75V34.1666C86.6667 32.6195 86.0521 31.1358 84.9581 30.0418C83.8642 28.9479 82.3804 28.3333 80.8333 28.3333H57.5C55.9529 28.3333 54.4692 28.9479 53.3752 30.0418C52.2813 31.1358 51.6667 32.6195 51.6667 34.1666Z" fill="#0099FF"/>
</svg>
