<svg width="24" height="24" viewBox="0 0 24 24" fill="none" xmlns="http://www.w3.org/2000/svg">
<path d="M12 16C12.8 16 13.5127 15.7627 14.138 15.288C14.7633 14.8133 15.2173 14.2007 15.5 13.45H8.50001C8.78334 14.2 9.23768 14.8127 9.86301 15.288C10.4883 15.7633 11.2007 16.0007 12 16ZM9.50001 12C9.91668 12 10.271 11.8543 10.563 11.563C10.855 11.2717 11.0007 10.9173 11 10.5C10.9993 10.0827 10.8537 9.72866 10.563 9.438C10.2723 9.14733 9.91801 9.00133 9.50001 9C9.08201 8.99866 8.72801 9.14466 8.43801 9.438C8.14801 9.73133 8.00201 10.0853 8.00001 10.5C7.99801 10.9147 8.14401 11.269 8.43801 11.563C8.73201 11.857 9.08601 12.0027 9.50001 12ZM14.5 12C14.9167 12 15.271 11.8543 15.563 11.563C15.855 11.2717 16.0007 10.9173 16 10.5C15.9993 10.0827 15.8537 9.72866 15.563 9.438C15.2723 9.14733 14.918 9.00133 14.5 9C14.082 8.99866 13.728 9.14466 13.438 9.438C13.148 9.73133 13.002 10.0853 13 10.5C12.998 10.9147 13.144 11.269 13.438 11.563C13.732 11.857 14.086 12.0027 14.5 12ZM7.62501 6.4L10.425 2.775C10.625 2.50833 10.8627 2.31266 11.138 2.188C11.4133 2.06333 11.7007 2.00066 12 2C12.2993 1.99933 12.587 2.062 12.863 2.188C13.139 2.314 13.3763 2.50966 13.575 2.775L16.375 6.4L20.625 7.825C21.0583 7.95833 21.4 8.20433 21.65 8.563C21.9 8.92166 22.025 9.31733 22.025 9.75C22.025 9.95 21.9957 10.15 21.937 10.35C21.8783 10.55 21.7827 10.7417 21.65 10.925L18.9 14.825L19 18.925C19.0167 19.5083 18.825 20 18.425 20.4C18.025 20.8 17.5583 21 17.025 21C16.9917 21 16.8083 20.975 16.475 20.925L12 19.675L7.52501 20.925C7.44168 20.9583 7.35001 20.9793 7.25001 20.988C7.15001 20.9967 7.05834 21.0007 6.97501 21C6.44168 21 5.97501 20.8 5.57501 20.4C5.17501 20 4.98334 19.5083 5.00001 18.925L5.10001 14.8L2.37501 10.925C2.24168 10.7417 2.14568 10.55 2.08701 10.35C2.02834 10.15 1.99934 9.95 2.00001 9.75C2.00001 9.33333 2.12101 8.946 2.36301 8.588C2.60501 8.23 2.94234 7.97566 3.37501 7.825L7.62501 6.4Z" fill="#FFD233"/>
</svg>
