<svg width="24" height="24" viewBox="0 0 24 24" fill="none" xmlns="http://www.w3.org/2000/svg">
<path d="M8.699 10.646L8.595 10.156M13.59 9.606L13.486 9.116M8.5 15.57C9.758 15.886 11.186 15.886 12.623 15.501C14.059 15.116 15.295 14.402 16.227 13.5" stroke="#FC5555" stroke-width="1.5" stroke-linecap="round" stroke-linejoin="round"/>
<path d="M12.5879 15.637L13.0659 16.611C13.1524 16.7884 13.273 16.9469 13.4208 17.0776C13.5687 17.2083 13.7409 17.3085 13.9275 17.3725C14.1142 17.4366 14.3116 17.4631 14.5086 17.4507C14.7055 17.4383 14.8981 17.3871 15.0752 17.3002C15.2523 17.2132 15.4106 17.0922 15.5408 16.944C15.6711 16.7957 15.7709 16.6233 15.8344 16.4365C15.8979 16.2496 15.9239 16.0521 15.911 15.8552C15.898 15.6583 15.8463 15.4659 15.7589 15.289L15.2989 14.354" stroke="#FC5555" stroke-width="1.5" stroke-linecap="round" stroke-linejoin="round"/>
<path d="M3 18.562V12.044C3 7.05 7.03 3 12 3C16.97 3 21 7.05 21 12.044V18.561C21 19.723 20.033 21.08 19 20.561C18.165 20.141 16.777 20.041 16 20.561C15.126 21.146 13.874 21.146 13 20.561C12.115 19.968 11.351 19.991 10.5 20.561C9.626 21.146 8.374 21.146 7.5 20.561C6.723 20.041 5.835 20.141 5 20.561C3.967 21.08 3 19.724 3 18.562Z" stroke="#FC5555" stroke-width="1.5" stroke-linecap="round" stroke-linejoin="round"/>
</svg>
