<svg width="49" height="72" viewBox="0 0 49 72" fill="none" xmlns="http://www.w3.org/2000/svg">
<path d="M0 71.1754V0H49V71.1754L24.5 59.3128L0 71.1754Z" fill="#FFD233"/>
<path d="M10.0974 15.08H17.9094V16.352H10.0974V15.08ZM8.93341 18.428H18.9894V19.736H8.93341V18.428ZM10.0974 10.868H17.8254V12.164H11.6814V15.608H10.0974V10.868ZM27.0885 9.944H28.6725V21.092H27.0885V9.944ZM28.3125 14.144H30.2805V15.464H28.3125V14.144ZM20.4165 17.204H21.3525C23.2365 17.204 24.7005 17.144 26.3325 16.856L26.4885 18.14C24.8085 18.44 23.2845 18.512 21.3525 18.512H20.4165V17.204ZM20.4045 10.892H25.5165V15.2H22.0005V17.696H20.4165V13.928H23.9325V12.164H20.4045V10.892ZM31.3355 11H36.6515V18.368H31.3355V11ZM35.0795 12.248H32.9075V17.108H35.0795V12.248ZM38.1035 9.956H39.7115V21.068H38.1035V9.956ZM39.3515 14.144H41.3195V15.464H39.3515V14.144ZM22.0969 25.944H23.6929V37.092H22.0969V25.944ZM15.0409 33.204H16.0249C17.9929 33.204 19.5649 33.132 21.3289 32.832L21.4849 34.116C19.6849 34.44 18.0529 34.5 16.0249 34.5H15.0409V33.204ZM15.0289 26.892H20.2729V31.188H16.6609V33.684H15.0409V29.928H18.6409V28.164H15.0289V26.892ZM27.724 32.448H29.332V37.068H27.724V32.448ZM31.696 32.448H33.304V37.068H31.696V32.448ZM25.48 32.256H35.548V33.528H25.48V32.256ZM26.632 26.364H28.216V27.576H32.776V26.364H34.36V31.212H26.632V26.364ZM28.216 28.836V29.928H32.776V28.836H28.216Z" fill="white"/>
</svg>
