<svg width="150" height="150" viewBox="0 0 150 150" fill="none" xmlns="http://www.w3.org/2000/svg">
<path d="M96.875 5.13672L145 29.1992V82.8613L136.25 78.4863V38.9746L101.25 56.4746V74.1113L92.5 78.4863V56.4746L57.5 38.9746V54.4922L48.75 50.1172V29.1992L96.875 5.13672ZM96.875 48.8867L108.975 42.8027L77.3242 24.6875L62.9004 31.9336L96.875 48.8867ZM118.408 38.1543L130.85 31.9336L96.875 14.9121L86.6895 20.0391L118.408 38.1543ZM83.75 82.8613L75 87.2363V87.168L48.75 100.293V131.396L75 118.203V128.047L44.375 143.359L5 123.604V77.3926L44.375 57.7051L83.75 77.3926V82.8613ZM40 131.396V100.293L13.75 87.168V118.203L40 131.396ZM44.375 92.7051L69.5996 80.127L44.375 67.4805L19.1504 80.127L44.375 92.7051ZM83.75 92.6367L114.375 77.3242L145 92.6367V128.662L114.375 143.975L83.75 128.662V92.6367ZM110 132.012V111.162L92.5 102.412V123.262L110 132.012ZM136.25 123.262V102.412L118.75 111.162V132.012L136.25 123.262ZM114.375 103.574L130.85 95.3027L114.375 87.0996L97.9004 95.3027L114.375 103.574Z" fill="#0099FF"/>
</svg>
