<svg width="24" height="24" viewBox="0 0 24 24" fill="none" xmlns="http://www.w3.org/2000/svg">
<g clip-path="url(#clip0_18_516)">
<path d="M12.822 9.00013L17.244 13.3801C17.4129 13.5476 17.5282 13.7615 17.5753 13.9946C17.6223 14.2278 17.5991 14.4696 17.5084 14.6895C17.4178 14.9094 17.2638 15.0974 17.0661 15.2296C16.8684 15.3618 16.6359 15.4323 16.398 15.4321L7.60204 15.4321C7.36544 15.4311 7.13441 15.3602 6.93799 15.2283C6.74158 15.0964 6.58855 14.9093 6.49814 14.6907C6.40773 14.472 6.38397 14.2315 6.42986 13.9994C6.47575 13.7673 6.58923 13.5539 6.75604 13.3861L11.13 9.00013C11.3549 8.77663 11.659 8.65118 11.976 8.65118C12.2931 8.65118 12.5972 8.77663 12.822 9.00013Z" fill="#A1A3B9"/>
</g>
<defs>
<clipPath id="clip0_18_516">
<rect width="24" height="24" fill="white" transform="translate(24 24) rotate(-180)"/>
</clipPath>
</defs>
</svg>
