<svg width="24" height="24" viewBox="0 0 24 24" fill="none" xmlns="http://www.w3.org/2000/svg">
<g clip-path="url(#clip0_18_511)">
<path d="M11.178 14.9999L6.75596 10.6199C6.58709 10.4524 6.47181 10.2385 6.42474 10.0054C6.37767 9.77223 6.40094 9.53037 6.49159 9.31048C6.58224 9.0906 6.73619 8.90261 6.93389 8.77039C7.13159 8.63817 7.36412 8.56768 7.60196 8.56787H16.398C16.6346 8.56886 16.8656 8.63978 17.062 8.77171C17.2584 8.90363 17.4115 9.09067 17.5019 9.30933C17.5923 9.52798 17.616 9.76848 17.5701 10.0006C17.5243 10.2327 17.4108 10.4461 17.244 10.6139L12.87 14.9999C12.6451 15.2234 12.341 15.3488 12.024 15.3488C11.7069 15.3488 11.4028 15.2234 11.178 14.9999Z" fill="#A1A3B9"/>
</g>
<defs>
<clipPath id="clip0_18_511">
<rect width="24" height="24" fill="white"/>
</clipPath>
</defs>
</svg>
