<svg width="24" height="24" viewBox="0 0 24 24" fill="none" xmlns="http://www.w3.org/2000/svg">
<path d="M12.1558 2.00053C11.2617 1.98219 10.2308 2.44136 8.63248 3.58887L4.63495 6.49389C2.20994 8.25557 1.30077 8.82807 2.57661 12.8298L4.10328 17.529C5.02912 20.379 5.29329 21.4206 9.49248 21.4448H14.4333C17.4309 21.4448 18.5034 21.5156 19.8234 17.5281L21.3501 12.8298C22.2759 9.97891 22.6751 8.9814 19.2917 6.49389L15.2934 3.58887C14.0058 2.65386 13.1692 2.02053 12.1558 2.00053ZM12.0208 3.5697C12.0753 3.57137 12.1294 3.57415 12.1833 3.57804C13.0817 3.6472 13.5825 4.11054 14.1333 4.51054L14.15 4.52721L12.3758 11.3339H11.605L9.83665 4.52638L9.85332 4.50971C10.4975 4.01471 11.1233 3.61804 11.8617 3.57304L12.0208 3.5697ZM15.44 5.46305L15.515 5.51638L18.7467 7.86306C19.5134 8.38973 20.1442 8.92807 20.3534 9.79224C20.5651 10.6672 20.2742 11.2873 20.0642 11.9348L18.3067 17.3565C18.0434 18.2481 17.7242 19.0123 16.9675 19.4781C16.2 19.9506 15.5217 19.8698 14.8409 19.8698H9.13998C8.20914 19.8948 7.38497 19.8348 6.70747 19.2581C6.02163 18.6748 5.88913 18.004 5.67913 17.3565L3.91662 11.9348C3.60411 11.0564 3.41078 10.2514 3.74995 9.42724C4.09412 8.5939 4.68912 8.26307 5.23996 7.86306L8.46998 5.51638L8.53998 5.46805L9.23665 8.1414L9.05998 8.27057L6.74997 9.94141C6.2808 10.2831 6.19413 10.3664 6.15496 10.3972C6.16496 10.4472 6.18496 10.6347 6.3533 11.1047L8.12664 16.5581C8.29248 17.1181 8.35581 17.2281 8.37331 17.2706C8.42748 17.2781 8.61081 17.3123 9.10165 17.2973H14.8392C15.3642 17.2973 15.5284 17.2831 15.5892 17.2815C15.6109 17.234 15.7067 17.0715 15.8467 16.5956L17.62 11.1373C17.7817 10.6389 17.82 10.4664 17.8342 10.4189C17.7942 10.3814 17.6659 10.2397 17.2609 9.96308L14.925 8.27057L14.7425 8.1364L15.44 5.46305Z" fill="#D99BFF"/>
</svg>
