<svg width="24" height="24" viewBox="0 0 24 24" fill="none" xmlns="http://www.w3.org/2000/svg">
<path d="M4 5.00014C4.00002 4.86716 4.02656 4.73552 4.07807 4.61292C4.12959 4.49032 4.20503 4.37923 4.3 4.28614C5.38984 3.21778 6.84585 2.60488 8.37166 2.57218C9.89746 2.53948 11.3784 3.08945 12.513 4.11014L12.864 4.43815C13.5934 5.07724 14.5302 5.42957 15.5 5.42957C16.4698 5.42957 17.4066 5.07724 18.136 4.43815L18.385 4.21114C18.995 3.72814 19.912 4.11414 19.995 4.88714L20 5.00014V14.0001C20 14.1331 19.9734 14.2648 19.9219 14.3874C19.8704 14.51 19.795 14.6211 19.7 14.7141C18.6102 15.7825 17.1542 16.3954 15.6283 16.4281C14.1025 16.4608 12.6216 15.9108 11.487 14.8901L11.136 14.5621C10.4295 13.9431 9.52777 13.5925 8.58872 13.5717C7.64967 13.5508 6.73323 13.8611 6 14.4481V21.0001C5.99972 21.255 5.90212 21.5002 5.72715 21.6855C5.55218 21.8708 5.31305 21.9824 5.05861 21.9973C4.80416 22.0123 4.55362 21.9295 4.35817 21.7659C4.16271 21.6023 4.0371 21.3702 4.007 21.1171L4 21.0001V5.00014Z" fill="#FFD233"/>
</svg>
