<svg width="24" height="24" viewBox="0 0 24 24" fill="none" xmlns="http://www.w3.org/2000/svg">
<path d="M3 13.5H11L10.485 21.394C6.606 19.654 4.212 15.403 3 13.5ZM20.788 13.515L13 13.5L12.303 21.394C16.182 19.654 19.576 15.418 20.788 13.515ZM2.57 11.697L11 12L10.485 5.957C10.2235 5.15143 9.71126 4.4506 9.02308 3.95692C8.3349 3.46323 7.50688 3.20256 6.66 3.213C3.636 3.212 2 7.242 2 8.667C2 9.812 2.382 11.164 2.57 11.697ZM21.346 11.697L13 12L12.303 5.152C12.606 4.17 13.915 2.606 16.673 2.606C20.127 2.606 22 6.921 22 8.455C22 9.679 21.564 11.121 21.346 11.697Z" fill="#D8337B"/>
</svg>
